<?xml version="1.0" encoding="utf-8"?>
<!-- Svg Vector Icons : http://www.onlinewebfonts.com/icon -->
<!DOCTYPE svg PUBLIC "-//W3C//DTD SVG 1.1//EN" "http://www.w3.org/Graphics/SVG/1.1/DTD/svg11.dtd">
<svg version="1.1" xmlns="http://www.w3.org/2000/svg" xmlns:xlink="http://www.w3.org/1999/xlink" x="0px" y="0px" viewBox="0 0 1000 1000" enable-background="new 0 0 1000 1000" xml:space="preserve">
<metadata> Svg Vector Icons : http://www.onlinewebfonts.com/icon </metadata>
<g><path d="M964.5,116.5c0,0-28.8,13.2-48.8,20.6c-19.9,7.4-46.7,14.8-46.7,14.8S763.5,21.9,610.1,98.9c-153.4,77-103.8,250.8-103.8,250.8s-130.9,4.5-285.8-74C65.6,197.1,28,126.1,28,126.1S4,168.4,14.5,247C25,325.6,99,426.6,99,426.6l-89-36.1c0,0,4.5,49.9,39.1,101.2c34.6,51.4,156.4,116.3,156.4,116.3l-115.8,1.5c0,0,10.5,24.2,52.6,65s159.4,77,159.4,77s-82.5,58-139.9,80.1c-57.4,22-147.4,27.2-147.4,27.2s134,83.8,339.9,63.5c205.8-20.3,347.5-117,457.2-278c109.7-161,99.3-370.1,99.3-370.1s12-13.9,41.1-40.7c29.1-26.8,38.1-40,38.1-40l-72.8,7.8L964.5,116.5z"/></g>
</svg>